<?xml version="1.0" encoding="UTF-8"?>
<svg xmlns="http://www.w3.org/2000/svg" version="1.1" viewBox="0 0 109.973 71.798">
  <defs>
    <style>
      .cls-1 {
        fill-rule: evenodd;
      }

      .cls-1, .cls-2 {
        fill: #fff;
      }

      .cls-3 {
        font-family: Myriad-Roman, 'Myriad Roman';
        font-size: 12px;
      }
    </style>
  </defs>
  <!-- Generator: Adobe Illustrator 28.6.0, SVG Export Plug-In . SVG Version: 1.2.0 Build 709)  -->
  <g>
    <g id="Layer_1">
      <g>
        <path class="cls-1" d="M55.991,48.371h-2.037v6.363c-1.109-.941-3.623-2.275-5.322-2.275v2.121c1.882.617,5.674,1.98,5.238,7.598-3.357,0-6.039-3.918-6.039-5.941h-2.416c0,4.621,5.238,8.441,8.623,8.441v4.059h1.896v-4.059c3.343,0,8.609-3.82,8.609-8.441h-2.43c0,2.023-2.682,5.941-6.039,5.941-.435-5.617,3.357-6.981,5.238-7.598v-2.121c-1.713,0-4.213,1.334-5.322,2.275v-6.363Z"/>
        <path class="cls-1" d="M57.072,60.225l-.069.856c1.727-.463,3.455-2.346,4.002-4.072.127-.465.169-.871.154-1.363-.801.268-1.445.59-2.121,1.082-1.164.871-1.824,2.051-1.966,3.497Z"/>
        <path class="cls-1" d="M50.934,59.945c.59.561,1.223.912,2.009,1.137-.056-1.924-.772-3.623-2.43-4.635-.59-.337-1.095-.576-1.741-.801.027.688.041,1.096.295,1.685.436,1.053,1.012,1.854,1.867,2.613Z"/>
        <path class="cls-1" d="M42.437,45.548v19.045c0,3.82,2.823,3.82,5.886,4.944l6.656,2.261h.028l6.643-2.261c3.062-1.124,5.885-1.124,5.885-4.944v-19.045h-25.099ZM59.768,51.728c.871-.197,1.615-.267,2.515-.253v3.792h3.244l-.014.969c-.015,1.377-.323,2.543-1.011,3.75-1.236,2.163-2.865,3.68-5.113,4.762-.828.421-1.587.66-2.5.801v4.157h-3.807v-4.143c-.49-.07-.912-.183-1.376-.351-1.868-.66-3.3-1.616-4.648-3.048-1.657-1.644-2.515-3.596-2.599-5.928l-.014-.969h3.217v-3.792c1.039.028,1.77,0,2.836.351.914.296,1.658.619,2.5,1.096v-5.506h3.947v5.506c.941-.547,1.783-.898,2.822-1.193Z"/>
        <rect class="cls-2" y="40.841" width="109.973" height=".472"/>
        <path class="cls-1" d="M28.245,17.515c3.694-.548,5.844-3.778,5.844-8.765C34.088,3.807,31.939.619,28.245.07c-.365-.027-.716-.07-1.109-.07h-6.602v.436c1.545.141,1.869.281,1.869,1.644v13.428c0,1.319-.324,1.46-1.869,1.601v.477h6.602c.394,0,.744-.041,1.109-.069ZM24.903,15.211V2.233c0-1.264.617-1.798,2.078-1.798.436,0,.871.07,1.264.184,2.079.604,3.329,2.935,3.329,8.131,0,5.239-1.25,7.431-3.329,8.007-.393.111-.828.14-1.264.14-1.461,0-2.078-.506-2.078-1.686Z"/>
        <path class="cls-1" d="M45.604,12.374h-.688c-.141,3.202-1.109,4.663-3.834,4.663-1.25,0-1.573-.576-1.573-1.391v-5.562h.603c1.265,0,1.868.674,2.149,2.443h.646v-5.786h-.646c-.281,1.728-.674,2.514-2.149,2.514h-.603v-4.367c0-.97.393-1.475,1.868-1.475,2.5,0,2.977,1.867,3.398,4.732h.533V3.119h-9.789v.505c1.334.07,1.91,0,1.91,1.11v11.053c0,1.109-.576,1.18-1.91,1.25v.547h10.084v-5.21Z"/>
        <path class="cls-1" d="M54.354,17.584v-.477h-.322c-1.939-.141-2.191-.211-2.191-1.461v-5.632h2.191c3.441-.141,4.775-2.261,4.775-5.126,0-2.486-1.475-4.565-4.775-4.846-.281-.043-.576-.043-.857-.043h-5.701v.436c1.545.141,1.896.463,1.896,1.798v13.413c0,1.32-.351,1.32-1.896,1.461v.477h6.881ZM51.84,2.443c0-1.25.295-1.614,1.545-1.614.211,0,.436,0,.646.042,1.572.281,2.191,1.714,2.191,4.088,0,2.261-.647,3.623-2.191,4.045-.393.154-.857.182-1.404.182h-.787V2.443Z"/>
        <path class="cls-1" d="M56.153,17.037v.547h4.732v-.547c-1.586-.07-1.798-.421-1.798-1.25,0-.28.07-.717.212-1.109l.758-2.233h3.876l.97,3.062c.07.351.141.49.141.743,0,.507-.465.787-1.574.787v.547h5.268v-.547c-1.109-.07-1.32-.421-1.685-1.391l-4.157-12.922h-.759l-.141.506-3.945,12.557c-.211.674-.9,1.18-1.896,1.25ZM61.924,6.391h.07l1.615,5.239h-3.258l1.572-5.239Z"/>
        <path class="cls-1" d="M69.565,5.029v9.002c0,2.655,1.391,4.199,4.298,4.199,2.95,0,4.059-1.544,4.059-4.129V5.281c0-1.109.393-1.587,1.643-1.657v-.505h-4.156v.505c1.25.07,1.797.548,1.797,1.657v9.256c0,1.924-1.109,3.047-2.906,3.047-1.545,0-2.655-1.039-2.655-2.977V5.029c0-1.11.28-1.335,1.615-1.405v-.505h-5.196v.505c1.361.07,1.502.295,1.502,1.405Z"/>
        <path class="cls-1" d="M89.439,11.729h-.548c-.211,3.918-1.18,5.562-3.398,5.491-1.04,0-1.404-.463-1.404-1.433V4.889c0-1.124.533-1.194,2.008-1.265v-.505h-5.632v.505c1.264.07,1.545.141,1.545,1.265v10.898c0,1.109-.281,1.18-1.545,1.25v.547h8.975v-5.855Z"/>
        <path class="cls-1" d="M2.009,21.17v10.828c0,3.188,1.727,5.084,5.238,5.084,3.555,0,4.957-1.826,4.957-5.014v-10.619c0-1.334.746-1.938,2.291-2.008v-.506h-5.562v.506c1.588.07,2.305.674,2.305,2.008v11.194c0,2.29-1.336,3.652-3.484,3.652-1.896,0-3.231-1.223-3.231-3.582v-11.544c0-1.335.323-1.658,1.897-1.729v-.506H0v.506c1.728.07,2.009.394,2.009,1.729Z"/>
        <path class="cls-1" d="M19.2,36.043c-1.518-.07-1.939-.646-1.939-1.461v-10.295h.07l6.531,12.443h.815v-12.766c0-.717.435-1.335,1.615-1.405v-.505h-4.438v.505c1.25.07,2.008.689,2.008,1.405v8.819l-5.422-10.729h-3.764v.505c1.32,0,1.756.534,1.756,1.11v10.912c0,.814-.436,1.391-1.756,1.461v.547h4.523v-.547Z"/>
        <path class="cls-1" d="M27.557,36.043v.547h5.477v-.547c-1.391-.07-1.686-.351-1.686-1.461v-10.617c0-1.04.295-1.335,1.615-1.405v-.505h-5.406v.505c1.432.07,1.713.365,1.713,1.405v10.617c0,1.11-.281,1.391-1.713,1.461Z"/>
        <path class="cls-1" d="M38.848,22.56v-.505h-5.195v.505c.969.07,1.109.295,1.25.829l4.086,13.342h.76l3.904-12.766c.295-1.04.828-1.265,1.656-1.405v-.505h-4.24v.505c1.193.141,1.615.365,1.615,1.11,0,.365-.07,1.264-.281,2.078l-2.375,7.641h-.07l-2.359-8.525c-.252-.576-.463-1.123-.463-1.404,0-.604.533-.829,1.713-.899Z"/>
        <path class="cls-1" d="M55.168,31.31h-.533c.07,3.203-.898,4.733-3.693,4.733-1.264,0-1.588-.421-1.588-1.25v-5.633h.619c1.32,0,1.545.76,1.867,2.516h.646v-5.844h-.646c-.252,1.784-.322,2.57-1.867,2.57h-.619v-4.438c0-.97.479-1.405,1.939-1.405,2.514,0,3.272,1.657,3.342,4.523h.533v-5.027h-9.353v.505c1.32.07,1.531.365,1.531,1.405v10.828c0,1.039-.211,1.18-1.531,1.25v.547h9.353v-5.28Z"/>
        <path class="cls-1" d="M74.902,36.59c-2.486,0-3.344-3.047-3.736-5.056h-.646v5.196h.646c.141-.294.463-.898.828-.898.422,0,1.18,1.404,2.978,1.404,2.289,0,4.115-2.514,4.115-4.733,0-5.21-7.023-3.849-7.023-7.569,0-1.404,1.109-2.444,2.289-2.444,2.305,0,3.484,2.907,3.807,4.663h.506v-5.098h-.506c-.182.225.07.716-.674.8-.365,0-1.475-.8-3.133-.8-2.289,0-3.693,1.545-3.693,3.623,0,4.732,7.178,3.848,7.178,7.711,0,1.334-.857,3.201-2.935,3.201Z"/>
        <path class="cls-1" d="M97.57,27.223v-5.168h-9.943v5.168h.688v-.506c0-2.822,1.039-4.017,3.049-4.017h.211v12.093c0,1.039-.535,1.109-1.869,1.25v.547h5.885v-.547c-1.502-.141-1.938-.211-1.938-1.25v-12.093h.154c2.078,0,3.117,1.194,3.117,4.017v.506h.646Z"/>
        <path class="cls-1" d="M105.674,22.055v.505c1.041.07,1.545.141,1.545.899,0,.351-.225,1.18-2.514,5.701-2.219-4.803-2.373-5.351-2.373-5.842,0-.618.365-.688,1.545-.759v-.505h-5.562v.505c.898.07,1.334.365,1.658,1.11l3.006,6.74v4.242c0,1.11-.717,1.32-2.01,1.391v.547h6.096v-.547c-1.32-.07-2.008-.28-2.008-1.391v-4.453l2.977-6.164c.436-.941.83-1.265,1.939-1.476v-.505h-4.299Z"/>
        <path class="cls-1" d="M62.627,29.596c.295,0,.576.029.787.1.94.252,1.445,1.039,1.445,2.584,0,2.373.098,4.451,1.854,4.451h2.375v-.364c-1.756,0-2.15-1.503-2.221-2.612-.223-3.118-.223-3.483-2.514-4.229v-.084c2.15-.141,3.189-1.756,3.189-3.834,0-1.967-.787-3.483-4.129-3.553h-5.66v.505c1.32.07,1.613.141,1.613,1.25v10.983c0,1.039-.293,1.18-1.613,1.25v.547h5.336v-.547c-1.32-.07-1.643-.211-1.643-1.25v-5.197h1.18ZM61.447,23.67c0-.816.604-1.11,1.572-1.11.154,0,.295,0,.394.042,1.404.169,1.981,1.391,1.981,3.076,0,1.98-.506,3.048-1.981,3.343-.24.028-.535.07-.857.07h-1.109v-5.421Z"/>
        <path class="cls-1" d="M86.166,22.56v-.505h-5.422v.505c1.404.07,1.615.365,1.615,1.405v10.617c0,1.11-.211,1.391-1.615,1.461v.547h5.422v-.547c-1.404-.07-1.658-.351-1.658-1.461v-10.617c0-1.04.254-1.335,1.658-1.405Z"/>
      </g>
      <text class="cls-3" transform="translate(720.135 -288.448)"><tspan x="0" y="0">Lorem ipsum</tspan></text>
    </g>
  </g>
</svg>