<?xml version="1.0" encoding="UTF-8"?>
<svg xmlns="http://www.w3.org/2000/svg" version="1.1" viewBox="0 0 210.773 26.25">
  <defs>
    <style>
      .cls-1 {
        fill: #fff;
        fill-rule: evenodd;
      }
    </style>
  </defs>
  <!-- Generator: Adobe Illustrator 28.6.0, SVG Export Plug-In . SVG Version: 1.2.0 Build 709)  -->
  <g>
    <g id="Layer_1">
      <path class="cls-1" d="M37.177,1.713c-.365-.027-.716-.07-1.109-.07h-6.601v.435c1.545.141,1.869.281,1.869,1.644v13.428c0,1.319-.324,1.46-1.869,1.601v.477h6.601c.394,0,.744-.041,1.109-.069,3.694-.548,5.844-3.778,5.844-8.765,0-4.943-2.15-8.131-5.844-8.68h0ZM37.177,18.399c-.393.111-.828.14-1.264.14-1.461,0-2.078-.506-2.078-1.686V3.876c0-1.264.617-1.798,2.078-1.798.436,0,.871.07,1.264.184,2.079.603,3.329,2.935,3.329,8.131,0,5.239-1.25,7.431-3.329,8.007h0ZM44.452,19.227v-.547c1.334-.07,1.91-.141,1.91-1.25V6.377c0-1.11-.576-1.04-1.91-1.11v-.505h9.789v5.027h-.533c-.422-2.865-.898-4.732-3.398-4.732-1.475,0-1.868.505-1.868,1.475v4.367h.603c1.476,0,1.868-.786,2.149-2.514h.645v5.786h-.645c-.281-1.769-.885-2.443-2.149-2.443h-.603v5.562c0,.814.323,1.391,1.573,1.391,2.725,0,3.693-1.461,3.834-4.663h.687v5.21h-10.084ZM62.964,1.686c-.281-.043-.576-.043-.857-.043h-5.701v.435c1.545.141,1.895.463,1.895,1.798v13.413c0,1.32-.351,1.32-1.895,1.461v.477h6.881v-.477h-.322c-1.938-.141-2.191-.211-2.191-1.461v-5.632h2.191c3.441-.141,4.775-2.261,4.775-5.126,0-2.486-1.475-4.565-4.775-4.846h0ZM62.964,10.646c-.393.154-.857.182-1.404.182h-.787v-6.742c0-1.25.295-1.614,1.545-1.614.211,0,.436,0,.646.042,1.572.281,2.191,1.714,2.191,4.088,0,2.261-.646,3.623-2.191,4.045h0ZM70.927,4.873l-3.945,12.557c-.211.674-.9,1.18-1.896,1.25v.547h4.732v-.547c-1.586-.07-1.798-.421-1.798-1.25,0-.28.07-.717.212-1.109l.758-2.233h3.876l.97,3.062c.07.351.141.49.141.743,0,.507-.465.787-1.574.787v.547h5.268v-.547c-1.109-.07-1.32-.421-1.685-1.391l-4.157-12.922h-.759l-.141.506h0ZM70.927,13.272h-1.643l1.572-5.239h.07l1.615,5.239h-1.615ZM76.995,4.762h5.196v.505c-1.335.07-1.615.295-1.615,1.405v9.578c0,1.937,1.11,2.977,2.655,2.977,1.797,0,2.906-1.123,2.906-3.047V6.924c0-1.109-.547-1.587-1.797-1.657v-.505h4.156v.505c-1.25.07-1.643.548-1.643,1.657v8.82c0,2.585-1.109,4.129-4.059,4.129-2.907,0-4.298-1.544-4.298-4.199V6.672c0-1.11-.141-1.335-1.502-1.405v-.505h0ZM89.396,19.227v-.547c1.264-.07,1.545-.141,1.545-1.25V6.531c0-1.124-.281-1.194-1.545-1.265v-.505h5.632v.505c-1.475.07-2.008.141-2.008,1.265v10.898c0,.97.364,1.433,1.404,1.433,2.219.07,3.187-1.573,3.398-5.491h.548v5.855h-8.975ZM100.801,1.572h6.419v.506c-1.573.07-1.896.394-1.896,1.729v11.544c0,2.359,1.334,3.582,3.23,3.582,2.148,0,3.484-1.362,3.484-3.652V4.086c0-1.334-.717-1.937-2.305-2.008v-.506h5.562v.506c-1.545.07-2.291.674-2.291,2.008v10.619c0,3.187-1.402,5.014-4.957,5.014-3.512,0-5.238-1.896-5.238-5.084V3.807c0-1.335-.281-1.658-2.009-1.729v-.506h0ZM115.478,19.227v-.547c1.32-.07,1.756-.646,1.756-1.461V6.307c0-.576-.436-1.11-1.756-1.11v-.505h3.764l5.422,10.729V6.602c0-.717-.758-1.335-2.008-1.405v-.505h4.437v.505c-1.18.07-1.615.689-1.615,1.405v12.766h-.815l-6.531-12.443h-.07v10.295c0,.814.422,1.391,1.939,1.461v.547h-4.523ZM128.357,19.227v-.547c1.432-.07,1.713-.351,1.713-1.461V6.602c0-1.04-.281-1.335-1.713-1.405v-.505h5.406v.505c-1.32.07-1.615.365-1.615,1.405v10.617c0,1.11.295,1.391,1.685,1.461v.547h-5.476ZM146.109,4.691v.505c-.828.141-1.361.365-1.656,1.405l-3.904,12.766h-.76l-4.086-13.342c-.141-.534-.281-.759-1.25-.829v-.505h5.195v.505c-1.18.07-1.713.295-1.713.899,0,.281.211.828.463,1.404l2.359,8.525h.07l2.375-7.641c.211-.815.281-1.713.281-2.078,0-.745-.422-.97-1.615-1.11v-.505h4.24ZM146.615,19.227v-.547c1.32-.07,1.531-.211,1.531-1.25V6.602c0-1.04-.211-1.335-1.531-1.405v-.505h9.353v5.027h-.533c-.07-2.865-.828-4.523-3.342-4.523-1.461,0-1.939.436-1.939,1.405v4.437h.619c1.545,0,1.615-.786,1.867-2.57h.646v5.844h-.646c-.322-1.756-.547-2.516-1.867-2.516h-.619v5.633c0,.829.324,1.25,1.588,1.25,2.795,0,3.764-1.53,3.693-4.733h.533v5.28h-9.353ZM171.32,19.367v-5.196h.646c.392,2.009,1.25,5.056,3.736,5.056,2.078,0,2.935-1.867,2.935-3.201,0-3.863-7.178-2.978-7.178-7.711,0-2.078,1.404-3.623,3.693-3.623,1.658,0,2.767.8,3.133.8.744-.084.492-.575.674-.8h.506v5.098h-.506c-.322-1.756-1.502-4.663-3.807-4.663-1.18,0-2.289,1.04-2.289,2.444,0,3.721,7.023,2.359,7.023,7.569,0,2.22-1.826,4.733-4.115,4.733-1.799,0-2.557-1.404-2.978-1.404-.365,0-.687.604-.828.898h-.646ZM188.428,9.859v-5.168h9.943v5.168h-.646v-.506c0-2.822-1.039-4.017-3.117-4.017h-.154v12.093c0,1.039.435,1.109,1.937,1.25v.547h-5.885v-.547c1.334-.141,1.869-.211,1.869-1.25V5.337h-.211c-2.01,0-3.049,1.194-3.049,4.017v.506h-.687ZM201.77,19.227v-.547c1.293-.07,2.01-.28,2.01-1.391v-4.242l-3.006-6.74c-.324-.745-.76-1.04-1.658-1.11v-.505h5.562v.505c-1.18.07-1.545.141-1.545.759,0,.491.154,1.039,2.373,5.842,2.289-4.521,2.514-5.351,2.514-5.701,0-.759-.504-.829-1.545-.899v-.505h4.299v.505c-1.109.211-1.504.534-1.939,1.476l-2.976,6.164v4.453c0,1.11.687,1.32,2.008,1.391v.547h-6.096ZM164.215,4.691h-5.66v.505c1.32.07,1.613.141,1.613,1.25v10.983c0,1.039-.293,1.18-1.613,1.25v.547h5.336v-.547c-1.32-.07-1.643-.211-1.643-1.25v-5.197h1.18c.295,0,.576.029.787.1.939.252,1.445,1.039,1.445,2.584,0,2.373.098,4.451,1.853,4.451h2.375v-.364c-1.756,0-2.15-1.503-2.221-2.612-.223-3.118-.223-3.483-2.514-4.228v-.084c2.15-.141,3.189-1.756,3.189-3.834,0-1.967-.787-3.482-4.129-3.553h0ZM164.215,11.657c-.24.028-.535.07-.857.07h-1.109v-5.421c0-.815.604-1.11,1.572-1.11.154,0,.295,0,.394.042,1.404.169,1.98,1.391,1.98,3.076,0,1.98-.506,3.048-1.98,3.343h0ZM181.545,19.227v-.547c1.404-.07,1.615-.351,1.615-1.461V6.602c0-1.04-.211-1.335-1.615-1.405v-.505h5.422v.505c-1.404.07-1.658.365-1.658,1.405v10.617c0,1.11.254,1.391,1.658,1.461v.547h-5.422ZM12.542,0H0v19.045c0,3.82,2.823,3.82,5.886,4.944l6.656,2.261h.028l6.643-2.261c3.061-1.124,5.885-1.124,5.885-4.944V0h-12.557ZM10.646,20.014c-.49-.07-.912-.183-1.376-.351-1.868-.66-3.3-1.616-4.649-3.048-1.657-1.643-2.515-3.596-2.599-5.928l-.014-.969h3.217v-3.792c1.039.028,1.77,0,2.836.351.914.296,1.658.619,2.5,1.096V1.867h3.947v5.506c.941-.547,1.783-.898,2.822-1.193.871-.197,1.615-.267,2.515-.253v3.792h3.244l-.014.969c-.015,1.377-.323,2.543-1.011,3.75-1.236,2.163-2.865,3.68-5.113,4.762-.828.421-1.587.66-2.5.801v4.157h-3.807v-4.143h0ZM18.722,10.098c-.801.267-1.445.59-2.121,1.082-1.164.871-1.824,2.051-1.966,3.497l-.069.856c1.726-.463,3.455-2.346,4.002-4.072.127-.465.169-.871.154-1.363h0ZM6.335,10.098c.027.688.041,1.096.295,1.685.436,1.053,1.012,1.853,1.867,2.613.59.56,1.223.912,2.009,1.137-.056-1.924-.772-3.623-2.43-4.635-.59-.337-1.095-.576-1.741-.801h0ZM11.601,19.129v4.059h1.896v-4.059c3.343,0,8.609-3.82,8.609-8.441h-2.43c0,2.023-2.682,5.941-6.039,5.941-.435-5.617,3.357-6.98,5.238-7.598v-2.121c-1.713,0-4.213,1.334-5.322,2.275V2.822h-2.037v6.363c-1.109-.941-3.623-2.275-5.322-2.275v2.121c1.882.617,5.674,1.98,5.238,7.598-3.356,0-6.039-3.918-6.039-5.941h-2.416c0,4.621,5.238,8.441,8.623,8.441h0Z"/>
    </g>
  </g>
</svg>