<svg width="165" height="177" viewBox="0 0 165 177" fill="none" xmlns="http://www.w3.org/2000/svg">
<g clip-path="url(#clip0_7_227)">
<path d="M109.858 68.2686H55.1328V123.005H109.858V68.2686Z" fill="white"/>
<path d="M78.2856 103.131C79.7507 102.76 81.0951 102.027 82.1893 100.997C84.0994 99.4301 85.1378 97.5104 86.0929 95.5257C86.5658 94.4313 86.7698 93.0587 86.6863 91.8623C85.5273 92.2333 84.4146 92.7248 83.3668 93.3369C79.8341 95.5535 78.2856 99.2354 78.2856 103.14" fill="#0057B6"/>
<path d="M82.8014 100.997C83.8955 102.027 85.24 102.769 86.705 103.13C86.705 99.2257 85.1566 95.5438 81.6238 93.3273C80.5761 92.7152 79.4541 92.2236 78.3044 91.8527C78.2209 93.049 78.4342 94.4216 78.8978 95.516C79.8528 97.5007 80.8913 99.4205 82.8014 100.988" fill="#0057B6"/>
<path d="M84.9062 105.69C83.8677 93.8281 92.324 90.7676 95.8104 89.701V85.203C92.2776 85.203 87.0481 88.078 84.6836 90.0627V76.5779H80.3164V90.0627C77.9613 88.078 72.7317 85.203 69.1897 85.203V89.701C72.6761 90.7676 81.1231 93.8281 80.0939 105.69C73.0933 105.69 67.5763 97.51 67.5763 93.1603H62.254C62.254 102.963 73.1582 110.772 80.2237 110.772H80.4091V119.323H84.5817V110.772H84.7671C91.8418 110.772 102.746 102.963 102.746 93.1603H97.4237C97.4237 97.51 91.8975 105.69 84.9062 105.69Z" fill="#0057B6"/>
<path d="M110.201 65.875H50.3579V115.548C50.3579 119.518 52.9263 123.042 56.7001 124.247L82.8294 132.529L108.291 124.247C112.074 123.033 114.633 119.518 114.633 115.548V65.875H110.201ZM104.768 93.16C104.693 97.8806 102.718 102.369 99.2969 105.615C96.5987 108.481 93.2329 110.633 89.4961 111.876C88.4947 112.256 87.5768 112.515 86.5476 112.682V121.502H78.4436V112.682C77.4051 112.506 76.4037 112.2 75.495 111.876C71.7583 110.623 68.3925 108.472 65.6942 105.615C62.2728 102.369 60.2978 97.8806 60.2236 93.16V91.1753H67.0758V83.0232C69.0693 82.9212 71.3689 83.2087 72.9915 83.626C74.9665 84.1361 78.3045 85.926 78.3045 85.926V74.5928H86.7052V85.926C86.7052 85.926 90.0339 84.1268 92.0182 83.626C93.6409 83.2087 95.9404 82.9212 97.9339 83.0232V91.1753H104.786V93.16H104.768Z" fill="#0057B6"/>
<path d="M159.446 109.567L159.807 113.081L163.34 113.1L160.475 115.168L162.228 118.238L159.001 116.791L157.221 119.842L156.859 116.327L153.326 116.318L156.191 114.241L154.439 111.18L157.666 112.618L159.446 109.567Z" fill="#C8102E"/>
<path d="M160.633 95.5438L161.495 98.966L164.991 98.4745L162.459 100.932L164.638 103.714L161.235 102.759L159.919 106.033L159.056 102.611L155.552 103.102L158.083 100.635L155.913 97.8531L159.307 98.8177L160.633 95.5438Z" fill="#C8102E"/>
<path d="M159.909 81.623L161.235 84.8969L164.629 83.9231L162.459 86.7146L165 89.1723L161.504 88.6808L160.642 92.1123L159.316 88.8385L155.913 89.803L158.092 87.0207L155.552 84.563L159.047 85.0453L159.909 81.623Z" fill="#C8102E"/>
<path d="M157.211 67.8047L159.001 70.8559L162.218 69.4091L160.475 72.4789L163.34 74.5471L159.807 74.5657L159.446 78.0806L157.666 75.0386L154.448 76.4854L156.191 73.4156L153.326 71.3475L156.859 71.3196L157.211 67.8047Z" fill="#C8102E"/>
<path d="M5.55414 109.567L5.19252 113.081L1.65979 113.1L4.52492 115.168L2.77246 118.238L5.99921 116.791L7.77949 119.842L8.14111 116.327L11.6738 116.318L8.80871 114.241L10.5612 111.18L7.33442 112.618L5.55414 109.567Z" fill="#C8102E"/>
<path d="M4.36724 95.5438L3.50492 98.966L0.00927734 98.4745L2.54061 100.932L0.361624 103.714L3.76455 102.759L5.08121 106.033L5.94353 102.611L9.44845 103.102L6.91712 100.635L9.08683 97.8531L5.69318 98.8177L4.36724 95.5438Z" fill="#C8102E"/>
<path d="M5.09047 81.623L3.76454 84.8969L0.370891 83.9231L2.5406 86.7146L0 89.1723L3.49565 88.6808L4.35797 92.1123L5.6839 88.8385L9.08682 89.803L6.90784 87.0207L9.44844 84.563L5.9528 85.0453L5.09047 81.623Z" fill="#C8102E"/>
<path d="M7.78864 67.8047L5.99909 70.8559L2.78161 69.4091L4.5248 72.4789L1.65967 74.5471L5.1924 74.5657L5.54475 78.0806L7.3343 75.0386L10.5518 76.4854L8.80859 73.4156L11.6737 71.3475L8.14098 71.3196L7.78864 67.8047Z" fill="#C8102E"/>
<path d="M108.253 124.201C112.027 122.986 114.586 119.48 114.586 115.511V65.9121H50.4038V115.511C50.4038 119.48 52.963 122.986 56.7368 124.201L82.8289 132.474L108.253 124.201Z" fill="#0072CE"/>
<path d="M97.9149 91.1752V83.0417C95.9307 82.9397 93.6311 83.2272 92.0085 83.6445C90.0335 84.1546 86.7048 85.9445 86.7048 85.9445V74.6299H78.3134V85.9445C78.3134 85.9445 74.9846 84.1546 73.0096 83.6445C71.387 83.2272 69.0875 82.9397 67.1032 83.0417V91.1752H60.2603V93.1599C60.3344 97.8713 62.3094 102.351 65.7309 105.597C68.4291 108.453 71.7857 110.605 75.5131 111.848C76.4125 112.172 77.414 112.478 78.4524 112.655V121.465H86.5471V112.655C87.5764 112.478 88.485 112.228 89.4864 111.848C93.2139 110.605 96.5797 108.453 99.2687 105.597C102.69 102.351 104.656 97.8713 104.739 93.1599V91.1752H97.8964H97.9149ZM84.7854 110.744H84.6V119.276H80.4274V110.744H80.242C73.1765 110.744 62.2909 102.944 62.2909 93.1599H67.6039C67.6039 97.5003 73.1209 105.671 80.1029 105.671C81.1321 93.8277 72.6944 90.7764 69.2173 89.7006V85.2119C72.75 85.2119 77.9703 88.0869 80.3254 90.0716V76.6053H84.6834V90.0716C87.0386 88.0869 92.2589 85.2119 95.7916 85.2119V89.7006C92.3145 90.7672 83.8767 93.8277 84.9059 105.671C91.888 105.671 97.405 97.5003 97.405 93.1599H102.718C102.718 102.944 91.8323 110.744 84.7669 110.744H84.7854ZM72.7964 93.3269C76.3291 95.5341 77.8683 99.216 77.8683 103.111C76.4125 102.74 75.0681 102.008 73.9739 100.978C72.0639 99.4108 71.0346 97.491 70.0796 95.5063C69.616 94.412 69.4027 93.0394 69.4862 91.8523C70.6452 92.2232 71.7579 92.7148 72.8056 93.3176H72.7964V93.3269ZM94.9478 95.5156C93.9928 97.5003 92.9543 99.4108 91.0535 100.987C89.9593 102.017 88.6149 102.75 87.1591 103.121C87.1591 99.2253 88.6983 95.5434 92.231 93.3361C93.2788 92.724 94.3915 92.2418 95.5505 91.8708C95.634 93.0579 95.4207 94.4398 94.9571 95.5249H94.9478V95.5156Z" fill="white"/>
<path d="M10.1718 138.252L19.8243 131.018L19.917 130.953L18.2944 128.783L6.64839 137.52L6.55566 137.585L10.4871 142.843L10.552 142.936L12.5548 141.433L10.1718 138.252Z" fill="white"/>
<path d="M27.1863 139.365L24.9053 136.981L11.9056 144.419L11.7758 144.494L13.5746 146.367L13.6395 146.432L16.3563 144.846L18.8505 147.452L17.1351 150.086L19.0638 152.099L27.1399 139.439L27.1863 139.365ZM23.9966 140.051L20.1579 145.709L18.1551 143.613L23.9966 140.051Z" fill="white"/>
<path d="M34.1034 145.532L28.4287 148.973L30.8024 142.88L30.8303 142.806L28.6049 140.942L25.6192 150.244L22.0123 154.556L24.043 156.253L27.6406 151.932L36.2916 147.359L34.1034 145.532Z" fill="white"/>
<path d="M34.6321 156.049L37.8218 158.145L39.0457 156.281L35.8561 154.185L37.8403 151.171L41.2803 153.434L42.597 151.44L37.0986 147.813L36.9966 147.758L28.9946 159.916L28.9297 160.018L34.6043 163.747L34.697 163.812L36.023 161.79L32.4161 159.416L34.6321 156.049Z" fill="white"/>
<path d="M49.6622 159.852C49.9868 159.193 50.1815 158.581 50.2371 158.015C50.2928 157.449 50.2279 156.921 50.0517 156.439C49.8755 155.956 49.5881 155.52 49.1986 155.149C48.8092 154.778 48.3456 154.454 47.7985 154.176L44.1174 152.33L44.0154 152.274L37.4785 165.286L37.4229 165.388L39.7409 166.557L42.5041 161.048L43.5518 161.577L42.8008 168.013V168.096L45.3135 169.367L45.9904 162.216C46.2315 162.254 46.4911 162.254 46.7786 162.216C47.1031 162.17 47.4462 162.059 47.7892 161.883C48.123 161.706 48.4661 161.456 48.7906 161.131C49.1152 160.807 49.4119 160.38 49.6715 159.879V159.852H49.6622ZM46.4448 156.04C46.658 156.142 46.8527 156.281 47.0289 156.448C47.2051 156.606 47.3442 156.8 47.4369 157.014C47.5296 157.227 47.5667 157.487 47.5482 157.774C47.5296 158.062 47.4276 158.405 47.2422 158.776C46.9177 159.416 46.5189 159.814 46.0368 159.963C45.5546 160.111 45.0539 160.056 44.5532 159.805L43.422 159.23L45.3135 155.465L46.4448 156.031V156.04Z" fill="white"/>
<path d="M54.6322 159.731L58.3968 161.085L58.5081 161.132L59.324 158.878L53.0189 156.597L48.0768 170.295L48.0304 170.406L54.419 172.706L54.5303 172.752L55.3462 170.48L51.2757 169.006L52.648 165.212L56.2364 166.511L56.9967 164.415L53.4083 163.116L54.6322 159.731Z" fill="white"/>
<path d="M64.4791 160.195L60.8259 159.369L57.6084 173.568L57.5806 173.679L61.2153 174.505C61.7438 174.625 62.2445 174.681 62.7267 174.681C63.9228 174.681 64.9706 174.31 65.8607 173.568C67.0846 172.539 67.9655 170.879 68.4755 168.634C68.9855 166.39 68.902 164.507 68.2437 163.042C67.5761 161.558 66.3058 160.603 64.4791 160.185V160.195ZM63.9506 162.513C64.3771 162.606 64.7573 162.801 65.0818 163.079C65.4064 163.357 65.6567 163.728 65.8329 164.183C66.0091 164.646 66.1111 165.203 66.1203 165.843C66.1296 166.492 66.0461 167.234 65.8514 168.059C65.666 168.866 65.4342 169.562 65.1467 170.137C64.8593 170.702 64.5348 171.166 64.1731 171.5C63.8208 171.834 63.4314 172.056 63.0141 172.177C62.6061 172.288 62.1796 172.298 61.7438 172.205L60.7239 171.973L62.9121 162.291L63.9321 162.522H63.9506V162.513Z" fill="white"/>
<path d="M72.2588 169.757L72.0641 171.779L75.6803 172.122L75.7915 172.131L75.9863 170.118L72.3793 169.766L72.2588 169.757Z" fill="white"/>
<path d="M83.265 174.458L83.0703 162.281L80.3721 162.318L80.6039 177L87.2892 176.888L87.2428 174.393L83.265 174.458Z" fill="white"/>
<path d="M92.1106 174.042L91.6656 170.035L95.4579 169.609L95.2076 167.392L91.4152 167.819L91.0165 164.23L95.1149 163.775L94.846 161.392L88.1885 162.134L89.8018 176.611L89.8204 176.722L96.6726 175.962L96.413 173.559L92.1106 174.042Z" fill="white"/>
<path d="M102.357 159.759L99.2318 160.501L99.1484 160.519L99.0093 175.497V175.646L101.531 175.043L101.624 175.024V171.88L105.138 171.046L106.548 173.856L109.264 173.207L102.412 159.842L102.375 159.759H102.357ZM104.285 169.033L101.466 169.71L101.337 162.866L104.276 169.042L104.285 169.033Z" fill="white"/>
<path d="M115.792 163.265C115.977 162.987 116.126 162.662 116.228 162.301C116.33 161.93 116.367 161.512 116.348 161.058C116.33 160.594 116.218 160.093 116.014 159.565C115.755 158.878 115.43 158.322 115.05 157.905C114.67 157.487 114.234 157.172 113.761 156.977C113.288 156.783 112.769 156.699 112.231 156.736C111.694 156.773 111.137 156.894 110.572 157.107L106.612 158.61L111.777 172.224L111.814 172.336L114.243 171.417L112.055 165.658L113.149 165.241L117.377 170.147L117.433 170.212L120.066 169.21L115.254 163.877C115.44 163.729 115.616 163.534 115.783 163.293V163.265H115.792ZM113.65 162.291C113.437 162.746 113.057 163.08 112.528 163.284L111.341 163.738L109.848 159.797L111.035 159.342C111.258 159.259 111.49 159.203 111.731 159.185C111.972 159.166 112.203 159.185 112.426 159.268C112.649 159.342 112.862 159.491 113.066 159.695C113.27 159.908 113.446 160.214 113.594 160.604C113.845 161.271 113.863 161.837 113.65 162.291Z" fill="white"/>
<path d="M123.933 150.559L121.875 151.69L126.641 160.389L118.5 153.61L118.444 153.563L115.82 154.992L122.793 167.772L122.848 167.883L124.99 166.714L120.224 158.071L128.374 164.785L128.43 164.832L130.971 163.45L123.989 150.661L123.933 150.559Z" fill="white"/>
<path d="M127.948 147.721L125.75 149.251L134.021 161.233L134.086 161.326L136.293 159.805L128.013 147.823L127.948 147.721Z" fill="white"/>
<path d="M135.06 142.008L141.532 149.529L132.167 144.586L132.093 144.549L129.914 146.422L129.821 146.497L139.371 157.644L141.226 156.058L134.772 148.593L144.137 153.462L144.202 153.499L146.4 151.625L136.849 140.478L135.06 142.008Z" fill="white"/>
<path d="M148.801 136.545L146.01 139.699L147.772 141.257L148.931 139.94L151.602 142.296C151.583 142.472 151.518 142.666 151.416 142.88C151.305 143.112 151.138 143.353 150.934 143.594C150.609 143.965 150.229 144.197 149.803 144.289C149.376 144.382 148.894 144.364 148.393 144.234C147.883 144.104 147.346 143.872 146.789 143.538C146.233 143.204 145.677 142.796 145.129 142.314C144.61 141.85 144.147 141.359 143.748 140.858C143.358 140.357 143.062 139.847 142.867 139.356C142.672 138.873 142.598 138.4 142.626 137.946C142.654 137.501 142.83 137.102 143.145 136.749C143.729 136.091 144.48 135.813 145.389 135.924L145.537 135.943L145.148 133.513H145.065C144.369 133.429 143.683 133.531 143.025 133.8C142.366 134.069 141.745 134.542 141.17 135.191C140.623 135.813 140.262 136.508 140.104 137.269C139.946 138.02 139.974 138.808 140.178 139.615C140.382 140.413 140.753 141.229 141.291 142.036C141.819 142.833 142.515 143.612 143.34 144.345C144.193 145.096 145.055 145.69 145.927 146.117C146.798 146.543 147.652 146.803 148.467 146.896C148.671 146.914 148.875 146.933 149.07 146.933C149.682 146.933 150.266 146.831 150.813 146.617C151.546 146.339 152.213 145.866 152.788 145.217C153.354 144.577 153.762 143.946 154.003 143.334C154.244 142.731 154.383 142.129 154.402 141.563V141.507L148.792 136.545H148.801Z" fill="white"/>
<path d="M150.137 131.055L147.661 129.33L147.67 129.312L150.6 130.397L150.915 129.942L148.913 127.531L151.398 129.256L151.778 128.699L148.644 126.511L148.032 127.401L149.793 129.46L147.253 128.514L146.641 129.395L149.775 131.575L150.137 131.055Z" fill="white"/>
<path d="M146.103 131.287L148.709 133.104L149.135 132.492L146.53 130.674L146.938 130.09L146.409 129.729L145.167 131.518L145.686 131.88L146.103 131.287Z" fill="white"/>
<path fill-rule="evenodd" clip-rule="evenodd" d="M32.5642 26.1906V24.716L32.9351 24.6789C35.1048 24.4841 35.2532 24.3543 35.2532 22.7777V3.41294C35.2532 1.78067 35.1048 1.65083 32.9351 1.45607L32.5642 1.41897V0H42.4948C42.9306 0 43.3293 0.0370972 43.7188 0.0649201L44.1267 0.102017C49.7365 0.936704 52.9354 5.64805 52.9354 13.0304C52.9354 20.4127 49.653 25.2632 44.1545 26.0793L43.7651 26.1164C43.3664 26.1535 42.9492 26.1906 42.4948 26.1906H32.5642ZM42.2815 1.45607C40.3993 1.45607 39.6946 2.04962 39.6946 3.63553V22.3511C39.6946 23.5938 40.1304 24.3729 42.2815 24.3729C43.0048 24.3729 43.5426 24.3172 43.9876 24.1874C47.0568 23.3341 48.4847 19.7914 48.4847 13.0304C48.4847 6.26943 47.0104 2.57826 43.9784 1.6972C43.4128 1.53026 42.8286 1.44679 42.2723 1.44679H42.2815V1.45607Z" fill="white"/>
<path fill-rule="evenodd" clip-rule="evenodd" d="M54.0759 26.1906V24.5955L54.4654 24.5769C56.4682 24.4749 56.8298 24.3543 56.8298 23.1858V7.24324C56.8298 6.20452 56.6165 6.15815 54.9104 6.07468L54.0759 6.02831V4.49805H69.0135V12.576H67.4743L67.4187 12.2235C66.7511 7.66058 65.9722 5.75008 62.9217 5.75008C60.993 5.75008 60.6407 6.32508 60.6407 7.46582V13.355H61.095C62.8104 13.355 63.3667 12.678 63.784 10.0719L63.8396 9.72875H65.5364V18.901H63.8396L63.784 18.5579C63.3575 15.9054 62.4766 15.3768 61.095 15.3768H60.6407V22.991C60.6407 23.9741 60.9467 24.5862 62.4951 24.5862C66.0186 24.5862 67.4094 22.8704 67.6134 18.2518L67.632 17.8623H69.4308V26.1999H54.0667H54.0759V26.1906Z" fill="white"/>
<path fill-rule="evenodd" clip-rule="evenodd" d="M71.2018 26.1906V24.716L71.7303 24.6696C73.8073 24.4841 73.9371 24.4656 73.9371 22.991V3.6448C73.9371 2.04962 73.7238 1.6601 71.5819 1.46534L71.2111 1.42824V0H79.8435C80.2701 0 80.7059 0 81.1417 0.0649201C85.6665 0.445166 88.374 3.21818 88.374 7.46581C88.374 12.307 85.7871 15.08 81.0953 15.2748H78.3322V22.991C78.3322 24.4285 78.3322 24.4841 81.1138 24.6882H81.9576V26.1999H71.2111V26.1813L71.2018 26.1906ZM79.0461 13.253C79.8157 13.253 80.4277 13.2159 80.9191 13.0211C82.9127 12.4739 83.8213 10.7489 83.8213 7.56783C83.8213 4.16416 82.9219 2.42059 81.0026 2.07744C80.7337 2.0218 80.4277 2.0218 80.1402 2.0218C78.6103 2.0218 78.3229 2.32785 78.3229 3.94158V13.253H79.0461Z" fill="white"/>
<path fill-rule="evenodd" clip-rule="evenodd" d="M94.2989 26.1906V24.5768H94.7069C95.9401 24.5768 96.5613 24.3357 96.5613 23.8534C96.5613 23.668 96.5242 23.5381 96.4779 23.3248C96.4408 23.195 96.4037 23.0466 96.3666 22.8611L95.0685 18.7711H90.08L89.0786 21.7111C88.8839 22.2583 88.7912 22.8425 88.7912 23.1764C88.7912 24.0389 88.7912 24.4655 90.9887 24.5676L91.3781 24.5861V26.1813H83.7285V24.5954L84.1087 24.5676C85.3048 24.4841 86.2135 23.8998 86.4824 23.0559L92.1756 4.94315L92.4537 3.92297H94.1598L100.242 22.8518C100.725 24.1409 100.91 24.4841 102.31 24.5768L102.7 24.6047V26.1906H94.2804H94.2989ZM94.3545 16.7772L92.5372 10.8787L90.7662 16.7772H94.3545Z" fill="white"/>
<path fill-rule="evenodd" clip-rule="evenodd" d="M109.134 27.1269C104.869 27.1269 102.523 24.8268 102.523 20.6534V7.66937C102.523 6.31532 102.523 6.14839 100.752 6.05564L100.363 6.0371V4.50684H108.68V6.0371L108.291 6.05564C106.482 6.14839 106.353 6.37097 106.353 7.66937V21.4881C106.353 23.9179 107.632 25.3647 109.774 25.3647C112.176 25.3647 113.557 23.9179 113.557 21.3861V8.03107C113.557 6.67702 112.964 6.13911 111.36 6.05564L110.97 6.0371V4.50684H117.785V6.0371L117.396 6.05564C115.875 6.13911 115.421 6.60283 115.421 8.03107V20.7554C115.421 25.0401 113.372 27.1269 109.153 27.1269H109.134Z" fill="white"/>
<path fill-rule="evenodd" clip-rule="evenodd" d="M118.351 26.1901V24.595L118.741 24.5764C120.512 24.4744 120.576 24.428 120.576 23.1853V7.46534C120.576 6.20403 120.512 6.14839 118.741 6.05564L118.351 6.0371V4.50684H127.299V6.0371L126.909 6.05564C124.638 6.16694 124.406 6.29678 124.406 7.46534V23.1853C124.406 24.4188 124.814 24.8361 126.019 24.8361H126.214C128.977 24.8361 130.22 22.6566 130.507 17.3054L130.526 16.9158H132.12V26.1901H118.351Z" fill="white"/>
<path fill-rule="evenodd" clip-rule="evenodd" d="M12.9812 55.2099C7.8444 55.2099 5.01636 52.4554 5.01636 47.4658V31.8479C5.01636 30.1971 4.81237 29.8632 2.51284 29.7705L2.11414 29.7519V28.2124H12.1931V29.7519L11.8037 29.7705C9.66176 29.8632 9.45777 30.2249 9.45777 31.8479V48.4953C9.45777 51.4723 11.0433 53.253 13.7045 53.253C16.5974 53.253 18.3221 51.4352 18.3221 48.3933V32.2467C18.3221 30.5773 17.469 29.854 15.392 29.7612L15.0026 29.7427V28.2031H23.8483V29.7427L23.4589 29.7612C21.419 29.854 20.5474 30.5959 20.5474 32.2467V47.5679C20.5474 52.7151 18.0717 55.2099 12.9905 55.2099H12.9812Z" fill="white"/>
<path fill-rule="evenodd" clip-rule="evenodd" d="M36.1155 54.6998L27.2604 37.8206V51.1941C27.2604 52.0195 27.5479 52.7893 29.662 52.8913L30.0514 52.9099V54.5051H22.7078V52.9099L23.0972 52.8913C24.9887 52.7893 25.2391 51.9732 25.2391 51.1941V35.4556C25.2391 34.4169 23.9132 34.2685 23.1157 34.2685H22.7078V32.7197H28.7996L35.9578 46.8816V35.8915C35.9578 35.0198 34.9286 34.3613 33.4543 34.2778L33.0649 34.2593V32.729H40.288V34.2593L39.8985 34.2871C39.0084 34.3427 37.9606 34.6673 37.9606 35.9008V54.7276H36.1247V54.6998H36.1155Z" fill="white"/>
<path fill-rule="evenodd" clip-rule="evenodd" d="M41.2803 54.4963V52.9011L41.6697 52.8825C43.5798 52.7898 43.7467 52.5208 43.7467 51.1853V35.8735C43.7467 34.7235 43.654 34.3525 41.6697 34.2597L41.2803 34.2412V32.7109H49.9035V34.2412L49.514 34.2597C47.7523 34.3525 47.5761 34.6493 47.5761 35.8735V51.1853C47.5761 52.493 47.7523 52.7898 49.616 52.8825L50.0055 52.9011V54.4963H41.2803Z" fill="white"/>
<path fill-rule="evenodd" clip-rule="evenodd" d="M58.4523 54.7003L52.4717 35.1686C52.314 34.5565 52.2584 34.3525 51.0345 34.2597L50.6543 34.2319V32.7109H58.9715V34.2412L58.5821 34.269C56.6627 34.3803 56.4958 34.7698 56.4958 35.1594C56.4958 35.4376 56.7091 36.059 57.1263 37.0235V37.0513L60.2233 48.199L63.2831 38.3497C63.5613 37.2646 63.6726 36.0033 63.6726 35.4747C63.6726 34.8069 63.4871 34.4916 61.7068 34.2783L61.3452 34.2319V32.7295H68.2809V34.2226L67.9378 34.2783C66.7788 34.4731 66.2317 34.7606 65.8794 36.0126L60.1584 54.7281H58.4523V54.7003Z" fill="white"/>
<path fill-rule="evenodd" clip-rule="evenodd" d="M69.4399 54.4963V52.9011L69.8294 52.8825C71.6467 52.7898 71.6467 52.66 71.6467 51.4914V35.8735C71.6467 34.6493 71.5818 34.3525 69.8294 34.2597L69.4399 34.2412V32.7109H83.7563V40.7889H82.1708V40.3901C82.0502 35.9848 80.817 34.269 77.7572 34.269C75.5504 34.269 75.3742 35.0017 75.3742 35.8827V41.8739H75.8563C77.5995 41.8739 77.7572 41.2711 78.1095 38.7114L78.1837 38.1642H79.8898V47.42H78.2022L78.1373 47.0861C77.6552 44.4615 77.3677 43.7937 75.8471 43.7937H75.3649V51.5099C75.3649 52.3539 75.4947 52.9011 77.2379 52.9011C78.8791 52.9011 80.0567 52.5208 80.8263 51.7325C81.7906 50.7494 82.2079 49.0893 82.1522 46.5018V46.0845H83.747V54.5241H69.4307V54.4963H69.4399Z" fill="white"/>
<path fill-rule="evenodd" clip-rule="evenodd" d="M110.646 55.4325C108.745 55.4325 107.568 54.4216 106.863 53.8095C106.668 53.6425 106.418 53.4292 106.325 53.4014C106.232 53.4014 105.926 53.624 105.518 54.468L105.407 54.6998H103.803V46.3808H105.491L105.555 46.7146C106.473 51.3982 108.096 53.6704 110.535 53.6704C113.316 53.6704 114.355 51.0921 114.355 49.4691C114.355 47.0856 112.25 46.0933 109.811 44.934C107.095 43.6448 104.007 42.1888 104.007 38.3399C104.007 34.9641 106.316 32.7012 109.747 32.7012C111.462 32.7012 112.797 33.2669 113.604 33.6101C113.854 33.7213 114.169 33.8512 114.271 33.8512C114.652 33.8048 114.661 33.7213 114.707 33.4338C114.735 33.2576 114.772 33.0443 114.92 32.8588L115.041 32.7104H116.376V40.8904H114.893L114.828 40.5565C114.42 38.3492 112.834 34.1665 109.747 34.1665C108.356 34.1665 106.854 35.4185 106.854 37.2827C106.854 39.4714 108.791 40.3061 111.035 41.2799C113.826 42.4856 116.988 43.8582 116.988 48.1985C116.988 51.5466 114.216 55.4418 110.646 55.4418V55.4325Z" fill="white"/>
<path fill-rule="evenodd" clip-rule="evenodd" d="M131.481 54.4963V52.9289L131.852 52.8918C133.882 52.6785 134.179 52.5765 134.179 51.5007V34.4731C131.499 34.5194 130.303 36.1795 130.303 39.8521V40.9929H128.486V32.7109H143.646V40.9929H141.894V39.8521C141.894 36.2166 140.688 34.5472 137.999 34.4731V51.5007C137.999 52.5765 138.185 52.6878 140.419 52.8918L140.79 52.9289V54.5055H131.481V54.4963Z" fill="white"/>
<path fill-rule="evenodd" clip-rule="evenodd" d="M148.755 54.4958V52.9006L149.144 52.882C151.138 52.7708 151.657 52.4462 151.657 51.2869V45.2586L147.355 35.6133C146.947 34.6766 146.446 34.3427 145.306 34.25L144.926 34.2222V32.7012H153.771V34.2314L153.382 34.2593C151.537 34.3705 151.537 34.5004 151.537 34.9456C151.537 35.5669 151.833 36.4851 154.559 42.4206C157.378 36.8004 157.758 35.5762 157.758 35.1496C157.758 34.5189 157.601 34.3798 155.913 34.2593L155.533 34.2314V32.7012H162.552V34.1851L162.218 34.25C160.772 34.5282 160.308 34.8806 159.715 36.1419L155.459 44.9525V51.2776C155.459 52.4369 155.978 52.7615 157.962 52.8728L158.352 52.8913V54.4865H148.736H148.755V54.4958Z" fill="white"/>
<path fill-rule="evenodd" clip-rule="evenodd" d="M98.731 54.7003C95.6433 54.7003 95.6433 50.9071 95.6433 47.8651C95.6433 45.3054 94.6234 44.7397 93.863 44.5357C93.6034 44.4522 93.2511 44.4058 92.8338 44.4058H91.545V51.4914C91.545 52.6321 91.6562 52.7805 93.52 52.8825L93.9094 52.9011V54.4963H85.3882V52.9011L85.7776 52.8825C87.6413 52.7805 87.7155 52.6321 87.7155 51.4914V35.6509C87.7155 34.4081 87.6413 34.3618 85.7776 34.2597L85.3882 34.2412V32.7109H93.965C98.3137 32.8037 100.335 34.5658 100.335 38.2477C100.335 41.1784 98.9628 43.2651 96.6818 43.9514C98.9999 44.9252 99.0833 46.0196 99.3522 49.8127V49.9704C99.5099 52.2148 100.446 53.3555 102.152 53.3555H102.56V54.7096H98.7217L98.731 54.7003ZM92.7411 42.857C93.1213 42.857 93.4736 42.8106 93.7889 42.7736L93.9279 42.755C95.7082 42.3933 96.4222 41.1598 96.4222 38.3404C96.4222 35.8642 95.5877 34.5102 93.9279 34.3154H93.8723L93.8167 34.2876C93.7518 34.2597 93.5571 34.2597 93.4087 34.2597C91.7768 34.2597 91.5542 34.8626 91.5542 35.4469V42.857H92.7411Z" fill="white"/>
<path fill-rule="evenodd" clip-rule="evenodd" d="M118.555 54.4963V52.9011L118.945 52.8825C120.818 52.7898 120.883 52.5023 120.883 51.1853V35.8735C120.883 34.6493 120.808 34.3525 118.945 34.2597L118.555 34.2412V32.7109H127.197V34.2412L126.807 34.2597C124.897 34.3525 124.805 34.6956 124.805 35.8735V51.1853C124.805 52.4466 124.888 52.7805 126.807 52.8825L127.197 52.9011V54.4963H118.555Z" fill="white"/>
</g>
<defs>
<clipPath id="clip0_7_227">
<rect width="165" height="177" fill="white"/>
</clipPath>
</defs>
</svg>
