<svg width="135" height="142" viewBox="0 0 135 142" fill="none" xmlns="http://www.w3.org/2000/svg">
<path opacity="0.4" d="M134.63 49.9893H114.249V25.9783C96.5333 24.3549 80.0729 35.0388 80.0729 35.0388V0H54.8504V35.0426C54.8504 35.0426 39.3038 25.0883 20.6893 25.9821V49.9932H0.120497C-2.20631 86.4834 29.6318 110.67 55.2114 115.842C55.2114 119.395 55.0309 142 55.0309 142H79.3587V115.476C112.994 109.773 138.393 77.041 134.63 49.9932V49.9893ZM73.4879 110.116V136.102H61.4162V110.116C39.7991 110.116 6.11798 85.6087 6.11798 56.0781H21.6953C21.6953 69.1073 38.8085 94.0886 60.4102 94.0886C63.2477 58.2324 38.8085 49.5845 26.7291 45.6004V32.0861C37.7104 32.0861 53.8137 40.5851 60.9209 46.5936V6.08108H73.9948V46.5974C81.1058 40.5889 97.2091 32.0899 108.183 32.0899V45.6043C96.0956 49.5845 71.6756 58.2324 74.4901 94.0924C96.0956 94.0924 113.205 69.1073 113.205 56.0819H128.801C128.801 85.6087 95.1012 110.12 73.4918 110.12L73.4879 110.116ZM28.7525 54.0918C44.1648 54.0918 57.3923 76.5979 53.376 87.1175C43.0743 85.1465 25.9727 67.8926 28.7525 54.0918ZM81.5281 87.1175C77.5119 76.5979 90.7547 54.0918 106.159 54.0918C108.928 67.8888 91.8336 85.1465 81.5281 87.1175Z" fill="#0072CE"/>
</svg>
